<svg width="347" height="407" viewBox="0 0 347 407" fill="none" xmlns="http://www.w3.org/2000/svg">
<path d="M286.511 304.798C284.702 306.024 283.151 307.592 281.943 309.413C270.814 323.084 259.462 336.58 248.776 350.567C238.966 363.19 228.352 375.167 217.001 386.424C213.808 389.726 210.351 392.762 206.664 395.502C203.135 398.258 199.031 400.183 194.656 401.134C190.28 402.085 185.747 402.038 181.392 400.996C176.907 400.029 172.586 398.412 168.568 396.198C162.528 392.718 156.21 389.718 150.175 386.42C140.904 381.262 132.23 375.1 124.308 368.045C120.94 364.578 118.446 360.36 117.032 355.739C116.78 354.929 116.694 354.077 116.779 353.233C116.864 352.388 117.118 351.57 117.526 350.827C118.57 348.634 119.996 346.644 121.736 344.95C127.563 338.453 134.286 332.949 140.673 327.055C147.06 321.16 153.28 315.851 159.413 309.963C170.759 299.154 181.325 287.638 193.114 277.144C193.298 276.986 193.453 276.798 193.573 276.588C193.745 275.923 193.814 275.236 193.776 274.55C193.771 274.369 192.93 274.099 192.496 274.183C191.551 274.309 190.62 274.527 189.717 274.833C177.646 278.401 165.964 283.011 154.166 287.335C128.721 296.584 103.314 305.893 77.9452 315.261C71.3653 317.653 64.5619 319.379 57.6374 320.413C52.8231 321.059 47.9237 320.378 43.4681 318.444C37.6208 316.625 32.7062 312.61 29.758 307.242C29.4853 306.57 29.0746 305.962 28.5522 305.458C21.9312 300.505 18.8419 293.068 14.9318 286.196C13.2978 283.26 11.8434 280.248 10.2093 277.312C6.34172 270.353 3.51342 262.866 1.81465 255.089C0.0554714 247.527 0.372943 239.63 2.73324 232.234C6.1076 222.053 12.8733 213.338 21.9004 207.545C30.9852 201.175 40.8798 196.045 51.3216 192.292C58.5199 189.826 65.729 187.795 72.9436 185.982C85.5688 182.799 98.3988 180.556 111.271 178.529C126.239 176.159 141.342 174.803 156.14 171.421C156.089 169.39 154.483 168.994 153.236 168.481C144.765 165.062 136.358 161.279 127.788 158.226C116.469 154.079 105.048 150.262 93.6281 146.445C89.5234 145.102 85.6358 143.169 82.0872 140.707C80.5066 139.636 79.1727 138.24 78.1745 136.613C77.1762 134.985 76.5364 133.163 76.2981 131.269C75.6821 127.671 76.0027 123.976 77.2287 120.538C79.8858 113.278 83.0955 106.232 86.8303 99.4632C89.0163 95.4159 91.3128 91.4384 93.7916 87.4927C97.135 81.0995 102.595 76.0659 109.238 73.252C115.881 70.4381 123.296 70.0186 130.214 72.0653C133.867 72.9906 137.768 73.6919 141.461 74.7614C150.684 77.5402 159.67 81.0548 168.33 85.2714C179.019 90.3045 189.538 95.8137 200.088 101.141C201.055 101.856 202.217 102.258 203.42 102.292C202.987 99.9276 202.221 97.6369 201.145 95.488L179.279 61.4407C178.947 61.0825 178.658 60.688 178.415 60.2645C176.496 55.8353 173.801 51.7844 170.458 48.3028C169.573 47.2188 168.846 46.0148 168.3 44.7268C166.97 42.2544 166.49 39.4138 166.932 36.6418C167.375 33.8698 168.715 31.3198 170.748 29.3841C173.644 26.5269 176.857 24.0109 180.326 21.8856C193.3 14.4157 206.797 7.8925 220.712 2.36663C231.785 -1.90226 241.517 1.15827 250.884 7.05918C258.259 11.703 263.805 18.643 271.075 23.4347C273.783 28.703 279.44 31.3932 282.291 36.5491C284.207 39.3282 286.285 41.9915 288.516 44.5248C290.27 46.7873 291.858 49.174 293.268 51.6659C293.94 53.4831 295.274 54.9795 297.002 55.856C298.581 56.579 299.469 58.6985 300.739 60.1551C300.922 60.2848 301.132 60.3693 301.354 60.4016C301.576 60.434 301.802 60.4132 302.014 60.3411C302.215 60.2315 302.385 60.0722 302.507 59.8786C302.629 59.6849 302.7 59.4632 302.712 59.2345C302.169 55.4301 301.224 51.6941 299.894 48.0887C296.503 37.2837 293.148 26.4778 289.648 15.6756C288.241 10.5387 287.727 5.19829 288.129 -0.112601C288.145 -1.80784 288.578 -3.47307 289.389 -4.96176C290.2 -6.45048 291.364 -7.71705 292.78 -8.64981C297.309 -11.8871 302.232 -14.5347 307.43 -16.5288C318.547 -20.5311 329.963 -23.6438 341.573 -25.8376C351.035 -27.7795 360.545 -29.2507 370.094 -30.5778C371.042 -30.7394 371.963 -31.0312 372.832 -31.4447C375.337 -32.3783 378.082 -32.4468 380.631 -31.6391C387.742 -30.0652 394.321 -26.6633 399.716 -21.7698C406.571 -15.6002 412.421 -8.39782 417.054 -0.422978C428.173 18.5725 437.736 38.4364 445.65 58.9743C454.486 81.4042 462.819 104.101 471.367 126.647C471.759 127.798 472.078 128.952 472.578 130.065C472.686 130.481 472.884 130.869 473.158 131.201C473.432 131.532 473.776 131.8 474.165 131.984C474.554 132.168 474.978 132.264 475.409 132.267C475.839 132.269 476.264 132.176 476.655 131.996C481.051 130.688 485.407 129.237 489.765 127.858C510.27 121.394 530.762 114.942 551.244 108.503C565.649 103.933 580.311 99.4292 594.787 94.7851C620.282 86.5994 645.775 78.3049 671.27 70.0829C672.422 69.6912 673.613 69.4074 674.874 69.0493C679.447 67.5559 683.921 66.4644 686.638 72.0955C692.289 74.5318 692.99 79.3783 692.833 84.718C692.917 88.0917 693.002 91.5017 693.086 94.8753C693.203 97.7972 692.473 100.69 690.984 103.207C689.494 105.724 687.309 107.756 684.692 109.06C681.749 110.704 678.706 112.162 675.581 113.425C661.691 118.296 647.762 123.072 633.795 127.752C623.247 131.245 612.658 134.558 602.068 137.835C584.994 143.125 567.759 147.801 550.482 152.188C532.495 156.775 514.46 161.375 496.378 165.988C493.816 166.632 491.136 166.881 488.614 167.633C486.092 168.386 485.571 169.306 486.363 171.936C488.423 178.854 490.664 185.768 492.76 192.685C496.847 205.563 500.192 218.666 502.777 231.928C505.044 244.249 507.709 256.488 508.966 269.052C509.691 276.293 510.67 283.529 511.534 290.549C512.386 299.216 512.603 307.933 512.185 316.631C512.44 322.689 511.351 328.728 508.996 334.315C505.571 341.21 501.558 347.795 496.999 353.998C493.474 358.336 488.915 361.72 483.742 363.839C471.617 369.3 458.845 373.193 445.735 375.422C436.737 377.025 427.663 378.522 418.661 379.981C413.817 380.791 409.059 379.204 404.122 379.181C403.403 379.132 402.726 378.827 402.213 378.322C398.477 374.059 394.057 370.031 393.393 363.804C393.375 363.079 393.357 362.353 393.339 361.628C392.777 350.752 391.236 339.901 389.702 329.304C389.533 327.629 389.491 325.943 389.576 324.262C389.763 315.763 387.597 307.468 387.165 298.913C386.693 295.326 385.961 291.777 384.977 288.296C384.369 293.03 383.831 296.201 383.548 299.402C382.99 306.131 382.796 312.924 381.946 319.588C381.096 326.252 380.711 334.138 380.126 341.231C379.602 347.886 378.57 354.555 378.631 361.341C378.569 370.525 377.246 379.657 374.698 388.481C371.74 399.445 362.641 405.733 350.974 406.569C344.882 406.837 338.78 406.393 332.791 405.243C318.99 402.894 305.319 399.831 291.835 396.065C289.278 395.402 286.853 394.229 284.327 393.384C279.589 391.631 275.573 388.345 272.915 384.05C270.822 381.261 269.461 377.993 268.956 374.544C268.452 371.094 268.82 367.573 270.026 364.303C274.205 349.933 278.019 335.464 283.003 321.329C283.883 318.802 284.728 316.276 285.832 313.998C287.137 311.393 287.692 308.476 287.437 305.573C288.01 305.232 288.583 304.928 287.767 304.222L286.511 304.798Z" fill="#FFF5ED" fill-opacity="0.12"/>
</svg>
