<svg width="298" height="345" viewBox="0 0 298 345" fill="none" xmlns="http://www.w3.org/2000/svg">
<path d="M80.1023 135.949C73.7296 134.241 67.3636 132.49 60.9932 130.813C49.6849 127.822 38.4519 124.387 26.7346 123.871C17.4898 123.464 8.28466 123.587 -0.416889 127.54C-13.263 133.379 -17.8128 144.024 -13.7368 158.183C-10.3032 170.102 -2.91171 178.694 6.57412 185.511C20.0541 195.185 35.1986 200.774 50.8204 204.802C62.5066 207.817 74.4083 209.875 86.1974 212.412C88.4502 212.892 90.6599 213.584 92.8909 214.17C92.8598 214.548 92.8181 214.917 92.7862 215.285C88.6582 215.008 84.5367 214.689 80.4034 214.475C70.3474 213.941 60.2846 213.051 50.2252 213.133C45.8244 213.18 41.2281 214.714 37.0863 216.508C25.2709 221.57 21.0707 234.78 27.1524 246.773C31.4346 255.211 38.1991 261.102 45.9166 265.709C61.8367 275.191 78.9998 280.242 97.1518 281.97C119.298 284.087 141.561 284.152 163.686 282.164C166.202 281.99 168.727 281.952 171.249 282.049C175.361 282.108 176.459 282.904 177.252 287.15C178.567 294.294 179.648 301.487 180.836 308.651C182.278 317.218 183.632 325.812 185.269 334.343C185.793 336.634 186.71 338.808 187.975 340.756C191.01 345.755 196.7 346.009 199.324 340.849C201.194 337.195 202.187 333.106 202.215 328.939C202.054 319.232 201.043 309.536 200.328 299.818C199.824 293.073 199.25 286.312 198.729 279.6C198.651 278.561 198.668 277.588 198.639 276.137C202.074 275.881 205.341 275.637 208.593 275.31C231.355 272.955 253.232 264.993 272.467 252.064C284.143 244.211 292.75 233.556 296.452 219.119C298.501 210.852 298.265 202.121 295.77 193.952C292.545 182.697 284.069 176.547 272.428 176.267C260.077 175.901 248.05 180.234 238.541 188.475C233.025 193.067 228.148 198.542 222.734 203.314C218.23 207.277 213.399 210.846 208.666 214.523C206.636 216.096 205.022 215.297 204.632 212.849C204.241 210.401 203.67 207.528 204.493 205.418C206.233 200.68 208.539 196.198 211.355 192.083C217.713 183.247 225.014 175.125 231.13 166.11C235.79 159.236 239.758 151.865 242.968 144.115C247.018 134.334 246.848 123.969 242.911 113.927C236.416 97.3249 217.953 95.1398 207.137 102.448C201.74 105.95 197.53 111.153 195.094 117.33C191.854 125.63 188.993 134.099 185.67 142.363C183.987 146.563 181.905 150.57 179.458 154.323C178.445 155.872 175.922 157.336 174.244 157.137C171.608 156.832 170.061 154.136 169.851 151.32C169.579 148.989 169.774 146.629 170.422 144.39C173.822 134.522 177.379 124.711 181.091 114.958C185.836 102.429 190.362 89.874 191.641 76.2552C192.835 63.4788 191.698 51.169 186.034 39.469C183.657 34.5078 180.262 30.162 176.098 26.7504C164.762 17.4282 146.246 21.298 139.611 35.2959C134.475 46.0465 132.69 57.5294 131.809 69.321C131.106 78.5911 130.741 87.8882 129.928 97.1456C129.538 100.387 128.743 103.557 127.563 106.571C126.366 109.89 123.884 110.315 122.251 107.26C119.997 103.097 118.221 98.6689 116.96 94.0694C113.809 82.349 111.758 70.2643 108.019 58.7655C101.107 37.5022 88.5843 20.5036 70.0872 8.8526C61.0312 3.15382 51.2407 -0.190868 40.469 0.0282079C23.3241 0.388742 9.9201 11.0879 7.17184 28.8923C2.75145 57.4395 10.1454 81.9693 33.2351 99.5896C45.296 108.816 57.9182 117.206 70.1814 126.093C73.8435 128.746 77.1675 131.905 80.6423 134.833L80.1023 135.949Z" fill="#FFEFDE"/>
</svg>
