<svg width="109" height="243" viewBox="0 0 109 243" fill="none" xmlns="http://www.w3.org/2000/svg">
<path d="M124.797 134.939C119.529 138.255 114.237 141.54 108.991 144.874C99.6687 150.783 90.1048 156.362 82.1355 164.106C75.8474 170.216 69.9317 176.63 66.8483 185.1C62.2996 197.607 66.2971 207.415 78.2123 213.489C88.2436 218.601 98.6777 218.901 109.314 216.645C124.422 213.432 137.942 206.511 150.752 198.282C160.336 192.127 169.435 185.224 178.773 178.699C180.554 177.449 182.446 176.362 184.283 175.193C184.51 175.452 184.724 175.712 184.944 175.965C182.074 178.633 179.18 181.271 176.348 183.982C169.448 190.57 162.312 196.94 155.813 203.917C152.977 206.976 150.986 211.103 149.461 215.079C145.076 226.389 150.979 237.566 162.783 240.901C171.091 243.245 179.35 242.282 187.39 239.858C203.961 234.844 218.445 226.196 231.398 214.783C247.208 200.864 261.753 185.577 274.865 169.098C276.391 167.257 278.01 165.495 279.716 163.819C282.433 161.025 283.669 160.768 286.962 162.886C292.491 166.461 297.9 170.228 303.359 173.903C309.9 178.283 316.403 182.741 323.048 186.965C324.888 188.041 326.907 188.773 329.005 189.124C334.251 190.169 338.124 186.411 336.458 181.369C335.287 177.789 333.259 174.542 330.553 171.908C324.099 165.931 317.1 160.546 310.278 154.943C305.539 151.06 300.744 147.215 296.015 143.364C295.284 142.765 294.659 142.144 293.691 141.254C295.761 138.728 297.73 136.325 299.635 133.882C312.921 116.734 321.964 96.6787 326.038 75.3273C328.508 62.3632 327.147 49.7555 320.116 38.1517C316.045 31.5559 310.181 26.2423 303.214 22.8368C293.752 17.9986 284.209 19.977 276.443 27.8152C268.158 36.0887 263.157 47.087 262.353 58.8019C261.763 65.4799 262.167 72.271 261.762 78.9915C261.419 84.578 260.607 90.1422 259.928 95.7071C259.634 98.0914 258.061 98.7008 256.205 97.4346C254.35 96.1684 252.099 94.7595 251.255 92.8701C249.29 88.6999 247.861 84.3018 247.004 79.7816C245.367 69.8632 244.812 59.7425 242.899 49.8769C241.44 42.3579 239.204 35.0035 236.226 27.9322C232.468 19.0092 225.578 12.6259 216.447 9.03812C201.358 3.09728 187.903 14.4381 185.636 26.4684C184.412 32.3801 185.072 38.5423 187.525 44.0931C190.842 51.5293 194.517 58.8114 197.758 66.2814C199.408 70.0747 200.672 74.0206 201.532 78.0598C201.886 79.7286 201.199 82.3838 199.976 83.4141C198.06 85.0375 195.289 84.4121 193.31 82.7904C191.609 81.5158 190.192 79.9011 189.151 78.0508C184.912 69.5205 180.812 60.919 176.852 52.2465C171.749 41.1211 166.486 30.1312 158.413 20.7089C150.835 11.8739 142.044 4.93595 130.703 1.49734C125.91 0.0224442 120.856 -0.365655 115.913 0.361394C102.432 2.31895 92.902 17.4939 97.7344 30.8412C101.42 41.1196 107.767 49.5502 114.904 57.5524C120.509 63.8507 126.351 69.9329 131.876 76.2988C133.742 78.6 135.297 81.1353 136.5 83.8382C137.89 86.7439 136.552 88.7197 133.49 87.9282C129.299 86.8687 125.246 85.3141 121.417 83.2973C111.699 78.1162 102.46 71.9486 92.5049 67.3107C74.0963 58.7338 54.8225 56.6939 35.1541 62.1213C25.5283 64.7819 16.9635 69.4246 10.0902 76.978C-0.841958 89.0079 -2.57606 104.947 7.27757 118.005C23.0676 138.953 43.9261 149.247 70.4899 144.402C84.38 141.885 98.0889 138.457 111.889 135.588C116.009 134.73 120.24 134.423 124.419 133.867L124.797 134.939Z" fill="#FFEFDE"/>
</svg>
