<svg width="106" height="93" viewBox="0 0 106 93" fill="none" xmlns="http://www.w3.org/2000/svg">
<mask id="mask0_0_23" style="mask-type:luminance" maskUnits="userSpaceOnUse" x="17" y="0" width="17" height="51">
<path d="M17.0141 0H33.855V50.4043H17.0141V0Z" fill="white"/>
</mask>
<g mask="url(#mask0_0_23)">
<path d="M21.3801 50.1543C20.9704 49.0604 20.6978 47.6958 20.6978 46.1922C20.6978 42.777 21.9252 39.1908 24.2446 39.1908C25.8798 39.1908 29.1878 40.2847 31.6425 40.2847C33.0071 40.2847 33.8247 39.0555 33.8247 38.2341V38.0988L32.7346 34.1028C32.462 33.2833 33.4168 31.2327 33.8247 30.6876C33.5522 30.2779 33.2796 29.5937 33.2796 29.0486V28.7742C33.5522 28.3645 33.6894 28.0919 33.6894 27.8175C33.6894 27.545 33.5522 27.2725 33.2796 27.1353C32.3248 26.7255 30.2798 25.4963 30.2798 25.0865C30.8249 24.4024 31.7797 24.4024 32.3248 24.1298C32.8699 23.8573 33.1424 23.1731 33.1424 22.6281C33.1424 22.2164 33.0071 21.8067 32.7346 21.6714C30.5524 20.5774 27.7894 18.2562 27.7894 17.7092C29.0168 17.7092 29.6991 17.2995 29.8363 17.1623C29.2893 17.2995 28.8814 17.4367 28.4717 17.4367C27.3816 17.4367 26.8346 16.7525 26.8346 16.6172C26.8346 14.7038 25.3347 12.6551 23.2897 10.1609C22.3349 7.08781 19.2994 2.13515 17.2545 0.0864258C20.9365 6.26832 21.0719 9.27374 23.2897 11.595C25.6072 14.0554 26.017 16.8221 25.7445 17.0946L24.2446 17.6416L26.8346 18.5964C26.8346 18.5964 31.7797 21.6018 32.3248 22.1488C32.462 22.9683 31.5072 23.6524 30.8249 24.0622C30.0054 24.6072 29.7329 25.017 29.7329 25.5639C29.7329 26.3834 31.7797 27.4773 32.8699 27.8871C33.1424 30.2083 31.9151 32.4281 32.3248 34.614C32.462 35.2982 32.5973 36.1177 32.5973 36.8C32.5973 37.4841 32.462 38.1664 32.3248 38.5762C32.1876 39.1231 31.6425 39.2603 30.9602 39.2603C28.9153 39.2603 25.3347 37.6195 23.9701 37.6195C21.1076 37.6195 19.8445 41.0346 19.8445 44.4855C19.8445 46.7391 20.4253 49.0604 21.3801 50.1543Z" fill="white"/>
</g>
<mask id="mask1_0_23" style="mask-type:luminance" maskUnits="userSpaceOnUse" x="31" y="42" width="75" height="15">
<path d="M31.9301 42.7056H105.737V56.1783H31.9301V42.7056Z" fill="white"/>
</mask>
<g mask="url(#mask1_0_23)">
<path d="M105.737 50.7012C102.872 46.5681 93.5306 42.7432 86.0274 42.7432C80.8116 42.7432 77.8099 45.4761 76.1747 49.0604C79.447 45.1001 85.2098 44.7919 89.2001 44.7919C99.7351 44.8257 104.372 49.7445 105.737 50.7012ZM54.9319 54.6972C58.7493 55.9264 63.6944 55.652 67.9573 54.2875C71.9119 52.921 75.0827 50.4607 76.0375 47.0117C74.1279 49.472 71.0943 51.282 67.4103 52.6466C63.6944 53.8777 59.4316 54.56 54.9319 54.6972ZM35.0517 55.7892H35.734C34.2341 55.5167 33.1421 54.4228 33.1421 53.0563C33.1421 51.5546 34.5066 49.2314 38.3597 49.2314C44.2578 49.2314 48.2143 56.2328 54.9319 55.4133C49.0319 55.1408 47.1223 47.4552 39.3146 47.4552C37.1324 47.4552 32.597 49.5058 32.1873 53.5018C32.1873 55.2423 33.5518 55.7892 35.0517 55.7892Z" fill="white"/>
</g>
<mask id="mask2_0_23" style="mask-type:luminance" maskUnits="userSpaceOnUse" x="16" y="0" width="3" height="12">
<path d="M16.0514 0H18.9384V11.4296H16.0514V0Z" fill="white"/>
</mask>
<g mask="url(#mask2_0_23)">
<path d="M17.9347 11.0499C18.3445 10.0932 18.617 9.0012 18.617 7.77009C18.617 5.72136 17.9347 3.22906 16.2995 0.0864258C16.2995 0.0864258 18.0719 4.49213 18.0719 9.0012C18.0719 9.68349 18.0719 10.3658 17.9347 11.0499Z" fill="white"/>
</g>
<path d="M8.76294 26.1449C8.21787 25.1882 8.08254 24.2334 8.08254 23.5493C8.08254 20.2713 12.8905 19.418 16.3 15.0461C17.2548 13.9522 17.6627 12.5858 17.9352 11.084C16.5725 13.9522 13.6742 15.7622 11.3549 17.1287C8.4904 18.7676 7.53558 20.9536 7.53558 22.9008C7.53558 24.0962 7.94533 25.3254 8.76294 26.1449Z" fill="white"/>
<path d="M25.1977 36.4597C25.6075 35.3658 25.4721 34.5463 25.1977 33.864C24.9252 33.1798 24.3801 32.7701 23.6978 32.4976C25.1977 33.8283 25.1977 36.4597 25.1977 36.4597Z" fill="white"/>
<path d="M17.6621 32.1893C19.9815 31.7796 22.1975 31.2326 24.2444 32.1893C23.0151 29.8681 19.9815 30.0034 15.8897 30.8229C13.7075 31.2326 11.0818 31.507 9.30933 30.8229C12.2076 33.0088 14.9349 32.5991 17.6621 32.1893Z" fill="white"/>
<path d="M10.8094 29.8679C5.2177 27.7835 2.45474 20.4062 2.72728 18.5962C1.90967 25.5976 6.71759 29.8679 10.8094 29.8679Z" fill="white"/>
<mask id="mask3_0_23" style="mask-type:luminance" maskUnits="userSpaceOnUse" x="0" y="40" width="68" height="18">
<path d="M0 40.2998H67.0554V57.3794H0V40.2998Z" fill="white"/>
</mask>
<g mask="url(#mask3_0_23)">
<path d="M60.6949 50.017C64.9559 50.017 67.0027 47.4213 67.0027 44.929C67.0027 43.5626 66.1833 42.1961 64.9559 41.5138C67.0027 44.1095 64.6834 47.9683 60.148 47.9683C55.4773 47.9683 52.75 45.3726 48.521 44.2805C52.75 45.9195 55.4773 50.017 60.6949 50.017ZM22.3349 52.9209C24.3798 51.0075 29.1878 47.4213 34.9505 45.2354C39.7584 43.4611 45.2129 42.5044 50.2934 44.1433C45.2129 41.6849 38.8036 41.8202 33.3134 43.8708C28.5055 45.6451 24.3798 48.7877 22.3349 52.9209ZM12.7529 57.2928C17.6961 57.2928 21.7879 55.6519 23.8348 52.4773C20.6978 54.7986 15.8898 54.9358 12.8901 54.9358C3.71778 54.9358 0.545074 48.0716 0 46.568C0.819491 53.6032 6.71757 57.2928 12.7529 57.2928ZM61.3753 41.9236C62.6027 41.1041 63.4222 41.1041 64.9221 41.1041H65.3318C64.9221 40.6943 64.2398 40.4199 63.6947 40.4199C62.8771 40.4199 62.0576 40.8297 61.3753 41.9236Z" fill="white"/>
</g>
<mask id="mask4_0_23" style="mask-type:luminance" maskUnits="userSpaceOnUse" x="2" y="0" width="24" height="37">
<path d="M2.57898 0H25.6751V36.9316H2.57898V0Z" fill="white"/>
</mask>
<g mask="url(#mask4_0_23)">
<path d="M17.9347 11.0499C18.3445 10.0932 18.617 9.0012 18.617 7.77009C18.617 5.72136 17.9347 3.22906 16.2995 0.0864258C16.2995 0.0864258 18.0719 4.49213 18.0719 9.0012C18.0719 9.68349 18.0719 10.3658 17.9347 11.0499ZM8.76244 26.1447C8.21737 25.188 8.08204 24.2332 8.08204 23.549C8.08204 20.2711 12.89 19.4178 16.2995 15.0459C17.2543 13.952 17.6622 12.5855 17.9347 11.0838C16.572 13.952 13.6737 15.762 11.3544 17.1284C8.4899 18.7674 7.53508 20.9534 7.53508 22.9006C7.53508 24.096 7.94483 25.3252 8.76244 26.1447ZM25.1974 36.4598C25.6071 35.3659 25.4718 34.5464 25.1974 33.8641C24.9248 33.1799 24.3797 32.7702 23.6975 32.4976C25.1974 33.8284 25.1974 36.4598 25.1974 36.4598ZM17.6622 32.1894C19.9816 31.7797 22.1976 31.2327 24.2444 32.1894C23.0152 29.8681 19.9816 30.0035 15.8898 30.823C13.7076 31.2327 11.0818 31.5071 9.30939 30.823C12.2077 33.0089 14.9349 32.5991 17.6622 32.1894ZM10.8093 29.8681C5.21758 27.7837 2.45462 20.4064 2.72716 18.5964C1.90955 25.5978 6.71747 29.8681 10.8093 29.8681Z" fill="white"/>
</g>
<path d="M7.793 80.287C6.47354 80.287 5.2819 80.0182 4.2143 79.4825C3.14671 78.9412 2.29715 78.1556 1.66561 77.1218C1.03784 76.0899 0.72583 74.8363 0.72583 73.3627C0.72583 72.3252 0.910027 71.4042 1.28218 70.596C1.65246 69.7896 2.1637 69.113 2.81591 68.566C3.47187 68.0153 4.23686 67.5999 5.10898 67.318C5.98109 67.0379 6.91712 66.897 7.92081 66.897C8.60685 66.897 9.30793 66.9628 10.0259 67.0924C10.7477 67.2184 11.4694 67.4214 12.1912 67.7014L12.101 68.987C11.2777 68.3762 10.4714 67.9251 9.68008 67.6338C8.8869 67.3387 8.13508 67.1902 7.4246 67.1902C6.4961 67.1902 5.66157 67.427 4.92102 67.8969C4.18423 68.363 3.60532 69.0547 3.1843 69.9719C2.76328 70.8892 2.55277 72.0207 2.55277 73.3627C2.55277 74.7667 2.80275 75.964 3.30459 76.9564C3.80456 77.9451 4.47744 78.7006 5.31949 79.2269C6.16153 79.7494 7.09004 80.0088 8.10876 80.0088C8.93577 80.0088 9.76466 79.8021 10.5973 79.3848V73.2875H12.4242V79.257C10.8153 79.9449 9.27033 80.287 7.793 80.287Z" fill="white"/>
<path d="M22.9917 80.0091H14.7141V67.1528H16.5485V79.7685C17.4996 79.7685 18.3454 79.7384 19.0822 79.6783C19.8227 79.6181 20.5106 79.5129 21.1422 79.3625C21.7775 79.2084 22.394 78.9941 22.9917 78.7234V80.0091Z" fill="white"/>
<path d="M26.8229 72.9043V79.7534C27.9695 79.7534 28.9957 79.729 29.8979 79.6783C30.8001 79.6294 31.6308 79.5279 32.394 79.3775C33.1608 79.2272 33.9051 79.0091 34.6269 78.7234V80.0091H24.9885V67.1528H34.3487V68.4309C33.4202 68.04 32.3714 67.7731 31.1985 67.6265C30.0257 67.4818 28.5672 67.4085 26.8229 67.4085V72.6487H33.3788V72.9043H26.8229Z" fill="white"/>
<path d="M38.1067 80.0091H36.2723L41.3997 67.1528H43.2342L48.3767 80.0091H47.3692C47.2583 79.3023 47.1305 78.5656 46.9858 77.7987C46.8392 77.0281 46.5967 76.2123 46.2565 75.3553L45.8505 74.3328H40.3772L38.1067 80.0091ZM43.1064 67.4611L40.4675 74.0771H45.7378L43.1064 67.4611Z" fill="white"/>
<path d="M50.6874 80.0091H49.4244C49.7138 79.1933 49.9544 78.4001 50.1461 77.6333C50.336 76.8627 50.492 76.03 50.6123 75.1372L51.5671 67.1528H53.394L57.4464 78.6558L61.3483 67.1528H62.6264L64.4008 80.0091H62.5738L61.0551 68.8745L57.296 80.0091H56.0705L51.7325 67.649L50.8528 75.1523C50.742 76.0695 50.6668 76.9228 50.6273 77.7085C50.5916 78.496 50.6123 79.2629 50.6874 80.0091Z" fill="white"/>
<path d="M79.0338 72.5885V67.1528H80.8682V80.0091H79.0338V72.8667H72.5906V80.0091H70.7562V67.1528H72.5906V72.5885H79.0338Z" fill="white"/>
<path d="M88.1787 80.2872C87.2107 80.2872 86.3405 80.1181 85.5699 79.7835C84.803 79.4489 84.194 78.9452 83.7429 78.2723C83.2918 77.6013 83.0663 76.7574 83.0663 75.7387V67.1528H84.9158V76.6409C84.9158 77.4829 85.0737 78.152 85.3894 78.6483C85.709 79.1407 86.1187 79.4941 86.6149 79.7083C87.1149 79.9188 87.6374 80.0241 88.1787 80.0241C88.7144 80.0241 89.2256 79.9188 89.7124 79.7083C90.203 79.4941 90.6033 79.1407 90.9153 78.6483C91.2255 78.152 91.3815 77.4829 91.3815 76.6409V67.1528H93.2159V75.7387C93.2159 76.7574 92.9941 77.6013 92.5543 78.2723C92.1126 78.9452 91.5131 79.4489 90.7575 79.7835C90 80.1181 89.141 80.2872 88.1787 80.2872Z" fill="white"/>
<path d="M100.904 80.0091H95.3706V67.1528H100.483C101.385 67.1528 102.116 67.3145 102.678 67.634C103.238 67.9498 103.65 68.3482 103.911 68.8294C104.176 69.3106 104.31 69.8068 104.31 70.318C104.31 70.9044 104.212 71.3913 104.017 71.7766C103.821 72.1638 103.569 72.4682 103.265 72.6938C102.958 72.9193 102.635 73.0847 102.295 73.19C101.953 73.2915 101.635 73.3535 101.34 73.378V73.4531C101.671 73.4644 102.051 73.5114 102.483 73.596C102.919 73.6824 103.34 73.829 103.746 74.0396C104.156 74.2463 104.498 74.532 104.768 74.8966C105.039 75.2632 105.174 75.7349 105.174 76.3101C105.174 76.9078 105.017 77.4904 104.701 78.0618C104.389 78.6295 103.915 79.0956 103.28 79.4602C102.648 79.8267 101.855 80.0091 100.904 80.0091ZM97.2051 67.4085V73.3028H99.9868C100.207 73.3028 100.464 73.2577 100.761 73.1674C101.062 73.0772 101.351 72.9269 101.633 72.7163C101.913 72.5021 102.146 72.2107 102.333 71.8442C102.517 71.474 102.611 71.0078 102.611 70.4458C102.611 69.9703 102.505 69.4985 102.295 69.0324C102.088 68.5625 101.771 68.1734 101.34 67.8671C100.913 67.5626 100.365 67.4085 99.6936 67.4085H97.2051ZM97.2051 73.5659V79.7534H99.9116C100.673 79.7534 101.306 79.5862 101.814 79.2497C102.319 78.9151 102.701 78.496 102.957 77.9942C103.212 77.4942 103.34 76.9867 103.34 76.4755C103.34 75.874 103.227 75.3853 103.002 75.0094C102.776 74.6297 102.487 74.3328 102.137 74.1223C101.791 73.908 101.425 73.7614 101.039 73.6862C100.658 73.6073 100.306 73.5659 99.9868 73.5659H97.2051Z" fill="white"/>
<path d="M4.95367 91.7022V88.5596H5.96864C6.21298 88.5596 6.4141 88.6009 6.5701 88.6799C6.72422 88.7607 6.84076 88.8716 6.91594 89.0107C6.99112 89.1516 7.02871 89.3076 7.02871 89.4768C7.02871 89.6779 6.97609 89.8583 6.87083 90.0181C6.76557 90.1741 6.60017 90.285 6.37463 90.3489L7.05879 91.7022H6.61521L5.97616 90.4015H5.32959V91.7022H4.95367ZM5.32959 90.1083H5.94608C6.18667 90.1083 6.36147 90.0519 6.47236 89.9354C6.58138 89.8151 6.63776 89.6648 6.63776 89.4843C6.63776 89.3001 6.58138 89.1516 6.47236 89.0407C6.36147 88.9317 6.18291 88.8753 5.93857 88.8753H5.32959V90.1083Z" fill="white"/>
<path d="M9.39221 91.7022V88.5596H11.3394V88.8678H9.76812V89.9655H11.2041V90.2737H9.76812V91.394H11.3394V91.7022H9.39221Z" fill="white"/>
<path d="M14.6487 91.7022L13.4683 88.5596H13.8743L14.8667 91.3037L15.8742 88.5596H16.2726L15.0923 91.7022H14.6487Z" fill="white"/>
<path d="M18.4763 91.7022V88.5596H18.8522V91.7022H18.4763Z" fill="white"/>
<path d="M22.2444 91.7022L21.064 88.5596H21.47L22.4624 91.3037L23.4699 88.5596H23.8683L22.688 91.7022H22.2444Z" fill="white"/>
<path d="M26.072 91.7022V88.5596H28.0192V88.8678H26.4479V89.9655H27.8839V90.2737H26.4479V91.394H28.0192V91.7022H26.072Z" fill="white"/>
<path d="M30.0577 92.2361L30.3208 91.2437H30.7118L30.3208 92.2361H30.0577Z" fill="white"/>
<path d="M35.9286 91.7022V88.5596H36.9436C37.1879 88.5596 37.389 88.6009 37.545 88.6799C37.6991 88.7607 37.8157 88.8716 37.8909 89.0107C37.966 89.1516 38.0036 89.3076 38.0036 89.4768C38.0036 89.6779 37.951 89.8583 37.8457 90.0181C37.7405 90.1741 37.5751 90.285 37.3495 90.3489L38.0337 91.7022H37.5901L36.9511 90.4015H36.3045V91.7022H35.9286ZM36.3045 90.1083H36.921C37.1616 90.1083 37.3364 90.0519 37.4473 89.9354C37.5563 89.8151 37.6127 89.6648 37.6127 89.4843C37.6127 89.3001 37.5563 89.1516 37.4473 89.0407C37.3364 88.9317 37.1578 88.8753 36.9135 88.8753H36.3045V90.1083Z" fill="white"/>
<path d="M40.3671 91.7022V88.5596H42.3143V88.8678H40.743V89.9655H42.179V90.2737H40.743V91.394H42.3143V91.7022H40.3671Z" fill="white"/>
<path d="M45.6759 91.7547C45.4447 91.7547 45.2436 91.7134 45.0744 91.6344C44.9034 91.5499 44.77 91.4314 44.676 91.2811C44.5858 91.1307 44.5406 90.9578 44.5406 90.7623H44.9391C44.9391 90.8826 44.9654 90.9954 45.0218 91.1006C45.0763 91.2021 45.159 91.2848 45.2699 91.3487C45.3789 91.4089 45.5143 91.439 45.6759 91.439C45.8902 91.439 46.0556 91.3901 46.1721 91.2886C46.2868 91.1833 46.345 91.0555 46.345 90.9052C46.345 90.7811 46.3168 90.6796 46.2623 90.6044C46.2116 90.5255 46.1383 90.4616 46.0443 90.4165C45.9541 90.3676 45.8488 90.3244 45.7285 90.2887C45.612 90.2548 45.4917 90.2135 45.3677 90.1684C45.1214 90.0838 44.941 89.9804 44.8263 89.8601C44.7098 89.7361 44.6534 89.5725 44.6534 89.3714C44.6478 89.2023 44.6854 89.0519 44.7662 88.9203C44.8451 88.7907 44.9579 88.691 45.1045 88.6196C45.2549 88.5444 45.4316 88.5068 45.6383 88.5068C45.8375 88.5068 46.0105 88.5444 46.1571 88.6196C46.3074 88.6948 46.4221 88.7982 46.5029 88.9279C46.5875 89.0594 46.6307 89.2098 46.6307 89.379H46.2398C46.2398 89.2887 46.2172 89.2023 46.1721 89.1158C46.127 89.0312 46.0593 88.9636 45.9691 88.9128C45.8789 88.8583 45.7624 88.8301 45.6233 88.8301C45.4522 88.8264 45.3113 88.8677 45.2023 88.9579C45.097 89.0482 45.0444 89.1741 45.0444 89.3338C45.0444 89.4692 45.082 89.5725 45.1571 89.6421C45.2323 89.7135 45.3376 89.7737 45.4729 89.8225C45.612 89.8676 45.7736 89.9203 45.9541 89.9804C46.1044 90.0312 46.236 90.0932 46.3526 90.1684C46.4728 90.2398 46.5649 90.3319 46.6307 90.4465C46.7003 90.5631 46.736 90.7078 46.736 90.8826C46.736 91.033 46.6946 91.1758 46.6157 91.3111C46.5405 91.4427 46.4221 91.5499 46.2623 91.6344C46.1063 91.7134 45.9109 91.7547 45.6759 91.7547Z" fill="white"/>
<path d="M49.7841 91.7022V88.8678H48.8444V88.5596H51.0998V88.8678H50.1601V91.7022H49.7841Z" fill="white"/>
<path d="M54.7668 91.7547C54.4605 91.7547 54.1898 91.6871 53.9549 91.5517C53.7237 91.4164 53.5432 91.2266 53.4136 90.9803C53.282 90.736 53.2181 90.4522 53.2181 90.1308C53.2181 89.8113 53.282 89.5293 53.4136 89.2887C53.5432 89.0444 53.7237 88.8527 53.9549 88.7173C54.1898 88.5783 54.4605 88.5068 54.7668 88.5068C55.077 88.5068 55.3476 88.5783 55.5788 88.7173C55.8138 88.8527 55.9942 89.0444 56.1201 89.2887C56.2498 89.5293 56.3156 89.8113 56.3156 90.1308C56.3156 90.4522 56.2498 90.736 56.1201 90.9803C55.9942 91.2266 55.8138 91.4164 55.5788 91.5517C55.3476 91.6871 55.077 91.7547 54.7668 91.7547ZM54.7668 91.4239C54.9961 91.4239 55.1991 91.3751 55.3758 91.2736C55.5506 91.1683 55.6859 91.0217 55.7818 90.83C55.8814 90.6345 55.9322 90.4014 55.9322 90.1308C55.9322 89.8601 55.8814 89.6308 55.7818 89.4391C55.6859 89.2493 55.5506 89.1045 55.3758 89.003C55.1991 88.8978 54.9961 88.8452 54.7668 88.8452C54.5357 88.8452 54.3327 88.8978 54.1579 89.003C53.9812 89.1045 53.844 89.2493 53.7444 89.4391C53.6485 89.6308 53.6015 89.8601 53.6015 90.1308C53.6015 90.4014 53.6485 90.6345 53.7444 90.83C53.844 91.0217 53.9812 91.1683 54.1579 91.2736C54.3327 91.3751 54.5357 91.4239 54.7668 91.4239Z" fill="white"/>
<path d="M58.6333 91.7022V88.5596H59.6483C59.8926 88.5596 60.0937 88.6009 60.2497 88.6799C60.4039 88.7607 60.5204 88.8716 60.5956 89.0107C60.6707 89.1516 60.7083 89.3076 60.7083 89.4768C60.7083 89.6779 60.6557 89.8583 60.5505 90.0181C60.4452 90.1741 60.2798 90.285 60.0543 90.3489L60.7384 91.7022H60.2948L59.6558 90.4015H59.0092V91.7022H58.6333ZM59.0092 90.1083H59.6257C59.8663 90.1083 60.0411 90.0519 60.152 89.9354C60.261 89.8151 60.3174 89.6648 60.3174 89.4843C60.3174 89.3001 60.261 89.1516 60.152 89.0407C60.0411 88.9317 59.8625 88.8753 59.6182 88.8753H59.0092V90.1083Z" fill="white"/>
<path d="M63.0718 91.7022V88.5596H65.0191V88.8678H63.4478V89.9655H64.8837V90.2737H63.4478V91.394H65.0191V91.7022H63.0718Z" fill="white"/>
<path d="M67.0575 92.2361L67.3206 91.2437H67.7116L67.3206 92.2361H67.0575Z" fill="white"/>
<path d="M72.9285 91.7022V88.5596H73.9434C74.1878 88.5596 74.3889 88.6009 74.5449 88.6799C74.699 88.7607 74.8155 88.8716 74.8907 89.0107C74.9659 89.1516 75.0035 89.3076 75.0035 89.4768C75.0035 89.6779 74.9509 89.8583 74.8456 90.0181C74.7404 90.1741 74.575 90.285 74.3494 90.3489L75.0336 91.7022H74.59L73.951 90.4015H73.3044V91.7022H72.9285ZM73.3044 90.1083H73.9209C74.1615 90.1083 74.3363 90.0519 74.4472 89.9354C74.5562 89.8151 74.6126 89.6648 74.6126 89.4843C74.6126 89.3001 74.5562 89.1516 74.4472 89.0407C74.3363 88.9317 74.1577 88.8753 73.9134 88.8753H73.3044V90.1083Z" fill="white"/>
<path d="M77.1721 91.7022L78.3299 88.5596H78.7283L79.8786 91.7022H79.4802L79.1945 90.8977H77.8562L77.563 91.7022H77.1721ZM77.969 90.5895H79.0817L78.5253 89.0332L77.969 90.5895Z" fill="white"/>
<path d="M82.124 91.7022V88.5596H83.0939C83.6446 88.5596 84.0506 88.7005 84.3118 88.9806C84.5712 89.2625 84.7028 89.6478 84.7028 90.1384C84.7028 90.6196 84.5712 91.0011 84.3118 91.2812C84.0506 91.5631 83.6446 91.7022 83.0939 91.7022H82.124ZM82.4999 91.3864H83.0788C83.3833 91.3864 83.6277 91.3376 83.8081 91.2361C83.9886 91.1365 84.1182 90.9936 84.1991 90.8075C84.278 90.6233 84.3194 90.3997 84.3194 90.1384C84.3194 89.879 84.278 89.6535 84.1991 89.4618C84.1182 89.2719 83.9886 89.1272 83.8081 89.0257C83.6277 88.9261 83.3833 88.8753 83.0788 88.8753H82.4999V91.3864Z" fill="white"/>
<path d="M87.0246 91.7022V88.5596H87.4005V91.7022H87.0246Z" fill="white"/>
<path d="M89.6502 91.7022L90.808 88.5596H91.2065L92.3568 91.7022H91.9583L91.6726 90.8977H90.3344L90.0412 91.7022H89.6502ZM90.4471 90.5895H91.5598L91.0035 89.0332L90.4471 90.5895Z" fill="white"/>
<path d="M95.3395 91.7022V88.8678H94.3997V88.5596H96.6552V88.8678H95.7154V91.7022H95.3395Z" fill="white"/>
<path d="M98.8936 91.7022V88.5596H100.841V88.8678H99.2695V89.9655H100.706V90.2737H99.2695V91.394H100.841V91.7022H98.8936Z" fill="white"/>
</svg>
