<svg width="101" height="248" viewBox="0 0 101 248" fill="none" xmlns="http://www.w3.org/2000/svg">
<path d="M-2.78423 76.6443C-1.35105 71.6401 0.114022 66.6425 1.52353 61.6393C4.03607 52.7585 6.88357 43.9489 7.53011 34.6796C8.04074 27.3662 8.14918 20.0705 5.34692 13.0739C1.20607 2.74479 -6.75456 -1.13689 -17.566 1.7234C-26.6666 4.13314 -33.335 9.76509 -38.7043 17.1025C-46.3251 27.5297 -50.889 39.382 -54.2809 51.6531C-56.8199 60.8327 -58.6392 70.2079 -60.8185 79.4814C-61.2311 81.2537 -61.8035 82.9862 -62.296 84.7384C-62.582 84.7039 -62.8603 84.6613 -63.1384 84.6264C-62.8383 81.3633 -62.5063 78.1065 -62.2539 74.8376C-61.6289 66.8849 -60.7351 58.936 -60.5771 50.9645C-60.5159 47.4769 -61.5774 43.7956 -62.8447 40.4677C-66.4196 30.9753 -76.3307 27.3038 -85.5453 31.8095C-92.0287 34.9822 -96.6375 40.1878 -100.295 46.1818C-107.824 58.5472 -112.025 72.0126 -113.73 86.3481C-115.818 103.837 -116.355 121.473 -115.334 139.053C-115.258 141.051 -115.284 143.052 -115.413 145.048C-115.547 148.304 -116.174 149.153 -119.407 149.67C-124.846 150.526 -130.316 151.196 -135.767 151.95C-142.286 152.869 -148.823 153.718 -155.319 154.793C-157.065 155.148 -158.731 155.818 -160.235 156.769C-164.086 159.044 -164.404 163.545 -160.554 165.758C-157.827 167.335 -154.753 168.228 -151.598 168.359C-144.244 168.484 -136.879 167.936 -129.505 167.622C-124.386 167.399 -119.254 167.12 -114.16 166.882C-113.371 166.848 -112.635 166.886 -111.536 166.901C-111.417 169.629 -111.303 172.224 -111.127 174.808C-109.842 192.902 -104.292 210.441 -94.9226 226.016C-89.2316 235.471 -81.3521 242.567 -70.5006 245.876C-64.2856 247.715 -57.6683 247.755 -51.4282 245.991C-42.8348 243.729 -37.9924 237.174 -37.5252 227.96C-36.9774 218.185 -39.9952 208.543 -46.0276 200.796C-49.3842 196.306 -53.4231 192.3 -56.9186 187.887C-59.8208 184.215 -62.4177 180.295 -65.0983 176.449C-66.2449 174.8 -65.6043 173.543 -63.7423 173.297C-61.8803 173.051 -59.6921 172.674 -58.1125 173.38C-54.5622 174.882 -51.2194 176.826 -48.1645 179.164C-41.6132 184.431 -35.6227 190.427 -28.9294 195.507C-23.8268 199.378 -18.3319 202.713 -12.5334 205.458C-5.21522 208.922 2.63727 209.057 10.3276 206.199C23.0416 201.486 25.1004 186.916 19.8032 178.157C17.2693 173.791 13.4213 170.319 8.79734 168.229C2.58354 165.446 -3.76743 162.958 -9.9524 160.111C-13.0958 158.668 -16.0844 156.915 -18.8728 154.878C-20.0238 154.035 -21.0767 151.998 -20.8895 150.674C-20.601 148.594 -18.5258 147.438 -16.3884 147.345C-14.6177 147.19 -12.8342 147.406 -11.1535 147.978C-3.75499 150.929 3.59617 154.002 10.9 157.197C20.284 161.283 29.692 165.195 39.9768 166.563C49.6255 167.841 58.9718 167.262 67.9556 163.079C71.7645 161.325 75.1296 158.749 77.8042 155.539C85.1116 146.801 82.5866 132.031 72.1321 126.41C64.1036 122.062 55.4474 120.348 46.5376 119.343C39.5333 118.545 32.5011 118.013 25.5088 117.128C23.0627 116.735 20.68 116.023 18.4231 115.009C15.9363 113.974 15.6683 111.997 18.0175 110.782C21.2193 109.106 24.6116 107.814 28.1221 106.935C37.0663 104.743 46.2622 103.434 55.0515 100.771C71.3044 95.8488 84.4506 86.3708 93.6782 72.0204C98.1918 64.9945 100.939 57.3253 101.009 48.786C101.111 35.194 93.3028 24.2963 79.8807 21.6553C58.3604 17.4098 39.6234 22.6285 25.7751 40.4619C18.5245 49.7766 11.8948 59.5576 4.8966 69.0414C2.80763 71.8735 0.342934 74.4246 -1.95037 77.1012L-2.78423 76.6443Z" fill="#FFEFDE"/>
</svg>
