<svg width="92" height="249" viewBox="0 0 92 249" fill="none" xmlns="http://www.w3.org/2000/svg">
<path d="M-10.6247 75.4954C-9.43704 70.4274 -8.2172 65.3642 -7.05313 60.2984C-4.97625 51.3057 -2.56135 42.3678 -2.36718 33.078C-2.21348 25.7485 -2.46062 18.4561 -5.60043 11.6044C-10.2396 1.48926 -18.3799 -1.99996 -29.0392 1.38368C-38.0115 4.23394 -44.3977 10.1841 -49.4031 17.7744C-56.5068 28.5605 -60.4878 40.6211 -63.2778 53.0428C-65.3666 62.3352 -66.7269 71.788 -68.4518 81.1567C-68.7776 82.9469 -69.2649 84.7053 -69.6714 86.4794C-69.9587 86.4589 -70.2389 86.4299 -70.5183 86.4086C-70.3775 83.1347 -70.2046 79.8656 -70.1117 76.5882C-69.875 68.6145 -69.3695 60.6316 -69.6001 52.6619C-69.7089 49.1754 -70.9485 45.5502 -72.3764 42.288C-76.4095 32.981 -86.4878 29.7968 -95.4719 34.7461C-101.793 38.2308 -106.143 43.6548 -109.504 49.8199C-116.421 62.5374 -119.961 76.1915 -120.966 90.5931C-122.2 108.163 -121.877 125.804 -120.001 143.314C-119.827 145.306 -119.755 147.305 -119.787 149.305C-119.762 152.563 -120.347 153.443 -123.551 154.117C-128.942 155.237 -134.373 156.172 -139.781 157.191C-146.247 158.426 -152.735 159.593 -159.171 160.983C-160.898 161.423 -162.529 162.173 -163.984 163.196C-167.721 165.656 -167.818 170.167 -163.865 172.19C-161.065 173.632 -157.951 174.374 -154.793 174.351C-147.442 174.118 -140.113 173.212 -132.762 172.539C-127.661 172.066 -122.548 171.538 -117.472 171.052C-116.685 170.979 -115.948 170.982 -114.85 170.943C-114.598 173.662 -114.358 176.249 -114.057 178.821C-111.891 196.831 -105.493 214.079 -95.3761 229.179C-89.2313 238.345 -81.0153 245.049 -70.0155 247.825C-63.7183 249.359 -57.1069 249.077 -50.9602 247.011C-42.4872 244.333 -37.9699 237.55 -37.9522 228.324C-37.8813 218.534 -41.3653 209.051 -47.7679 201.606C-51.3393 197.285 -55.5686 193.481 -59.275 189.243C-62.3526 185.717 -65.1374 181.928 -68.0021 178.218C-69.2278 176.626 -68.6492 175.339 -66.8014 175.003C-64.9535 174.667 -62.7864 174.183 -61.1742 174.812C-57.5549 176.139 -54.1214 177.918 -50.9562 180.105C-44.1561 185.046 -37.8806 190.743 -30.9478 195.491C-25.6625 199.109 -20.0117 202.172 -14.0863 204.631C-6.60814 207.734 1.2416 207.486 8.78359 204.258C21.2529 198.931 22.5994 184.278 16.8817 175.787C14.1381 171.549 10.1255 168.27 5.4052 166.407C-0.936824 163.93 -7.40144 161.755 -13.7178 159.212C-16.9278 157.924 -19.9982 156.318 -22.8826 154.42C-24.0732 153.634 -25.2242 151.651 -25.1017 150.319C-24.9149 148.228 -22.8984 146.972 -20.7682 146.775C-19.0071 146.534 -17.2152 146.663 -15.5086 147.152C-7.9751 149.739 -0.482958 152.45 6.96783 155.286C16.5397 158.909 26.1272 162.359 36.4664 163.224C46.166 164.031 55.473 162.996 64.2423 158.381C67.9612 156.444 71.1968 153.706 73.7119 150.37C80.5848 141.286 77.3432 126.657 66.6272 121.552C58.3965 117.6 49.6671 116.311 40.7189 115.741C33.684 115.284 26.6343 115.096 19.6071 114.553C17.1448 114.279 14.7302 113.684 12.4266 112.782C9.89231 111.869 9.52835 109.907 11.8156 108.58C14.9319 106.749 18.2572 105.293 21.7207 104.244C30.5475 101.62 39.6687 99.8634 48.3179 96.7759C64.3116 91.0674 76.9804 80.9602 85.4979 66.1773C89.6638 58.9398 92.034 51.1459 91.6878 42.6133C91.1278 29.0324 82.7977 18.5281 69.263 16.5442C47.5613 13.3522 29.1009 19.4777 16.1378 37.9646C9.34969 47.6214 3.20443 57.7139 -3.32342 67.5273C-5.27193 70.4579 -7.60941 73.126 -9.76958 75.9112L-10.6247 75.4954Z" fill="#FFEFDE"/>
</svg>
