<svg width="241" height="187" viewBox="0 0 241 187" fill="none" xmlns="http://www.w3.org/2000/svg">
<path d="M80.2188 97.2466C75.7593 98.3219 71.2906 99.3696 66.8424 100.463C58.9419 102.395 50.9469 104.037 43.5793 107.585C37.7661 110.384 32.1452 113.487 28.0468 118.715C21.998 126.436 22.5722 134.301 29.5635 141.43C35.4501 147.43 42.7166 150.138 50.7081 151.094C62.0608 152.445 73.143 150.804 84.024 148.072C92.1644 146.03 100.134 143.345 108.187 140.982C109.724 140.528 111.302 140.215 112.859 139.831C112.96 140.068 113.051 140.302 113.148 140.533C110.522 141.726 107.887 142.891 105.278 144.123C98.9252 147.113 92.4563 149.893 86.2972 153.252C83.606 154.729 81.266 157.159 79.2875 159.595C73.6262 166.512 75.2281 175.797 82.7663 180.97C88.072 184.608 94.0972 185.906 100.302 186.122C113.094 186.555 125.247 183.929 136.955 178.988C151.242 172.967 164.952 165.679 177.926 157.208C179.418 156.276 180.958 155.422 182.539 154.65C185.086 153.332 186.014 153.447 187.846 155.727C190.918 159.568 193.861 163.515 196.861 167.409C200.461 172.06 204.016 176.755 207.724 181.32C208.772 182.518 210.025 183.517 211.419 184.266C214.869 186.257 218.449 184.537 218.427 180.587C218.42 177.785 217.735 175.012 216.432 172.51C213.259 166.756 209.566 161.288 206.047 155.71C203.601 151.841 201.107 147.986 198.66 144.142C198.283 143.545 197.985 142.958 197.508 142.1C199.539 140.816 201.471 139.594 203.366 138.329C216.615 129.429 227.545 117.466 235.276 103.402C239.968 94.8611 241.885 85.6549 239.588 75.7997C238.23 70.1799 235.319 65.0342 231.197 60.9686C225.649 55.2972 218.489 54.4077 211.243 58.0708C203.533 61.9164 197.51 68.4668 194.274 76.5261C192.337 81.0887 191.073 85.9687 189.256 90.6055C187.742 94.4585 185.902 98.1833 184.156 101.941C183.406 103.55 182.161 103.603 181.146 102.267C180.13 100.931 178.869 99.4003 178.706 97.8676C178.275 94.46 178.274 91.0204 178.702 87.6314C179.812 80.2537 181.729 72.992 182.634 65.5856C183.322 59.9402 183.426 54.225 182.945 48.532C182.337 41.3478 178.949 35.2033 173.348 30.4916C164.095 22.6974 152.051 27.4665 147.715 35.3981C145.507 39.2691 144.566 43.7675 145.025 48.2642C145.662 54.2955 146.585 60.304 147.16 66.3409C147.455 69.4075 147.445 72.4894 147.128 75.5402C146.997 76.8002 145.909 78.5062 144.814 78.9394C143.097 79.6244 141.292 78.521 140.27 76.9053C139.365 75.6006 138.737 74.1242 138.427 72.5718C137.391 65.5491 136.47 58.5098 135.664 51.4538C134.613 42.3966 133.418 33.3967 129.891 24.8285C126.578 16.7925 121.98 9.8026 114.791 4.66739C111.758 2.48184 108.294 0.999457 104.653 0.328898C94.7302 -1.51727 84.5711 6.89145 84.9254 17.4489C85.173 25.5704 87.7129 33.0271 90.9061 40.3711C93.4101 46.1482 96.1307 51.83 98.5631 57.6356C99.3504 59.703 99.8654 61.8607 100.095 64.0523C100.41 66.4317 99.0187 67.5031 97.0466 66.2131C94.3423 64.4643 91.8475 62.3997 89.6154 60.063C83.9651 54.0888 78.8764 47.5343 72.9352 41.8858C61.9497 31.4405 48.8656 25.3927 33.8019 24.5102C26.4286 24.0814 19.3494 25.3026 12.7957 28.9786C2.36817 34.8367 -2.48439 45.6485 1.4655 57.204C7.79013 75.7364 20.1064 87.9773 39.8847 90.9193C50.223 92.4694 60.6415 93.3346 70.9967 94.6153C74.0887 94.997 77.1331 95.7927 80.1971 96.4008L80.2188 97.2466Z" fill="#A67C52"/>
</svg>
