<svg width="384" height="333" viewBox="0 0 384 333" fill="none" xmlns="http://www.w3.org/2000/svg">
<path d="M133.275 163.621C126.433 164.811 119.571 165.952 112.749 167.174C100.63 169.329 88.3215 170.973 77.2729 175.963C68.5554 179.899 60.1835 184.381 54.5086 192.711C46.1336 205.013 48.1729 218.519 60.1761 231.699C70.2823 242.791 82.0774 248.464 94.757 251.252C112.768 255.201 129.922 254.005 146.602 250.917C159.082 248.61 171.2 245.18 183.495 242.314C185.841 241.761 188.272 241.454 190.66 241.025C190.853 241.443 191.03 241.857 191.215 242.264C187.267 243.92 183.3 245.528 179.384 247.253C169.848 251.437 160.099 255.244 150.919 260.087C146.91 262.217 143.589 266.027 140.837 269.898C132.954 280.884 136.811 296.962 149.39 306.882C158.243 313.86 167.886 316.947 177.654 318.214C197.791 320.804 216.483 318.08 234.141 311.343C255.691 303.133 276.15 292.679 295.285 280.1C297.492 278.725 299.785 277.49 302.155 276.402C305.961 274.521 307.433 274.85 310.638 279.006C316.015 286.006 321.205 293.169 326.476 300.25C332.798 308.708 339.057 317.236 345.537 325.564C347.355 327.761 349.465 329.646 351.762 331.127C357.465 335.025 362.832 332.607 362.227 325.862C361.81 321.079 360.334 316.248 357.928 311.788C352.114 301.508 345.528 291.642 339.199 281.613C334.8 274.655 330.328 267.714 325.932 260.799C325.255 259.727 324.702 258.681 323.828 257.147C326.829 255.25 329.684 253.445 332.477 251.56C351.98 238.288 367.4 219.452 377.498 196.567C383.625 182.669 385.301 167.234 380.27 150.082C377.325 140.294 372.012 131.09 364.956 123.555C355.428 113.072 344.064 110.518 333.223 115.721C321.68 121.169 313.176 131.477 309.264 144.764C306.885 152.27 305.607 160.416 303.426 168.067C301.608 174.424 299.26 180.515 297.064 186.675C296.12 189.313 294.173 189.223 292.386 186.796C290.6 184.369 288.399 181.574 287.922 178.934C286.752 173.056 286.252 167.186 286.433 161.464C287.108 149.032 289.065 136.916 289.413 124.406C289.676 114.871 289.012 105.132 287.434 95.3459C285.44 82.9964 279.234 72.0192 269.762 63.167C254.114 48.5254 235.903 54.9219 230.247 67.8313C227.341 74.1184 226.516 81.6598 227.887 89.4008C229.759 99.7868 232.078 110.175 233.854 120.562C234.76 125.838 235.19 131.097 235.135 136.258C235.111 138.389 233.65 141.143 231.995 141.724C229.4 142.645 226.407 140.5 224.57 137.595C222.961 135.237 221.761 132.627 221.05 129.932C218.409 117.797 215.945 105.649 213.658 93.4899C210.697 77.8797 207.521 62.3464 200.745 47.2125C194.383 33.0178 186.156 20.4225 174.131 10.6177C169.055 6.44863 163.404 3.41728 157.593 1.74588C141.754 -2.84106 127.029 10.04 129.113 28.11C130.677 42.0068 135.742 55.1009 141.816 68.0973C146.581 78.3195 151.673 88.4105 156.33 98.6711C157.865 102.313 158.986 106.071 159.663 109.844C160.502 113.951 158.473 115.578 155.192 113.091C150.695 109.715 146.481 105.83 142.64 101.519C132.908 90.505 123.974 78.5818 113.833 68.0816C95.0817 48.6645 73.6736 36.4491 49.9065 32.7629C38.2735 30.9639 27.3407 32.0236 17.588 37.3491C2.07186 45.8381 -3.97855 63.5886 3.89237 83.8821C16.4997 116.427 37.5992 139.101 69.0632 146.985C85.5114 151.127 101.986 154.111 118.422 157.796C123.33 158.895 128.222 160.693 133.119 162.174L133.275 163.621Z" fill="#A67C52"/>
</svg>
