<svg width="250" height="252" viewBox="0 0 250 252" fill="none" xmlns="http://www.w3.org/2000/svg">
<path d="M149.505 74.6776C150.303 69.5338 151.134 64.3924 151.908 59.2525C153.294 50.1277 155.02 41.0318 154.506 31.7542C154.1 24.4342 153.298 17.1819 149.645 10.5895C144.248 0.85739 135.866 -2.00118 125.495 2.18511C116.766 5.71101 110.852 12.1306 106.44 20.0804C100.179 31.3766 97.1291 43.7056 95.2941 56.3038C93.9197 65.7284 93.2839 75.2573 92.2781 84.7303C92.0898 86.5401 91.7379 88.3305 91.4678 90.1305C91.1798 90.1319 90.8982 90.1243 90.618 90.1244C90.5088 86.8493 90.432 83.5765 90.2748 80.3016C89.9031 72.3331 89.7986 64.3348 88.9612 56.4059C88.5869 52.9378 87.0746 49.4177 85.4022 46.2738C80.6714 37.3014 70.3797 34.8946 61.799 40.5143C55.7619 44.4708 51.8383 50.2105 48.9566 56.6139C43.0291 69.8216 40.5402 83.7059 40.6357 98.1422C40.7452 115.755 42.412 133.321 45.6172 150.636C45.9424 152.609 46.166 154.597 46.2872 156.593C46.5598 159.84 46.0439 160.762 42.9006 161.678C37.6111 163.205 32.2668 164.552 26.9525 165.981C20.5995 167.705 14.2191 169.363 7.90786 171.239C6.21939 171.81 4.64987 172.682 3.27711 173.813C-0.260842 176.55 -0.0142545 181.056 4.08158 182.771C6.98339 183.996 10.145 184.498 13.2917 184.235C20.6042 183.442 27.8427 181.98 35.1205 180.749C40.1713 179.889 45.2285 178.972 50.2534 178.101C51.0316 177.968 51.7671 177.914 52.8594 177.792C53.3177 180.484 53.7537 183.045 54.2506 185.587C57.7823 203.379 65.4767 220.089 76.7152 234.374C83.5409 243.045 92.2439 249.103 103.423 251.033C109.819 252.083 116.39 251.297 122.361 248.769C130.605 245.453 134.593 238.345 133.907 229.144C133.231 219.377 129.035 210.187 122.083 203.253C118.193 199.217 113.686 195.746 109.667 191.803C106.33 188.522 103.264 184.956 100.125 181.475C98.7817 179.981 99.2604 178.654 101.077 178.178C102.894 177.702 105.018 177.055 106.673 177.558C110.383 178.606 113.943 180.117 117.265 182.057C124.422 186.465 131.114 191.667 138.388 195.873C143.934 199.077 149.802 201.701 155.897 203.702C163.59 206.225 171.398 205.38 178.672 201.586C190.699 195.324 190.925 180.611 184.577 172.581C181.518 168.564 177.267 165.6 172.419 164.103C165.906 162.116 159.295 160.44 152.803 158.387C149.504 157.347 146.32 155.98 143.299 154.307C142.052 153.614 140.753 151.724 140.774 150.387C140.801 148.287 142.716 146.882 144.825 146.523C146.562 146.149 148.359 146.14 150.098 146.498C157.807 148.503 165.484 150.635 173.129 152.895C182.949 155.778 192.772 158.487 203.147 158.561C212.88 158.627 222.081 156.886 230.473 151.616C234.033 149.4 237.051 146.424 239.304 142.905C245.465 133.325 241.117 118.985 230.043 114.712C221.535 111.398 212.733 110.778 203.767 110.892C196.718 110.973 189.675 111.323 182.627 111.317C180.15 111.232 177.698 110.822 175.332 110.098C172.735 109.382 172.223 107.453 174.402 105.955C177.37 103.892 180.575 102.187 183.948 100.877C192.549 97.5874 201.51 95.141 209.899 91.4032C225.411 84.4923 237.272 73.4488 244.638 58.0596C248.24 50.5256 250.009 42.5737 249.014 34.0923C247.42 20.5936 238.314 10.7549 224.667 9.80842C202.785 8.27996 184.846 15.7947 173.329 35.216C167.297 45.3622 161.939 55.8936 156.178 66.1762C154.459 69.2467 152.331 72.0852 150.39 75.027L149.505 74.6776Z" fill="#FFEFDE"/>
</svg>
